#!OML:ASF F:\VICON\USERDATA\INSTALL\rory3\rory3.ASF
:FULLY-SPECIFIED
:DEGREES
72
root -0.0543891895613019 18.450367839120908 13.65039939693188 5.0670005646979135 -3.431540938497978 -1.3668850806637822
lfemur 14.671987334717418 -4.4677411394317765 -28.211833266611226
ltibia 46.15045300143349
lfoot 18.20597044693295 -13.758402728010907
ltoes -24.602147232931983
rfemur -41.26568817047782 -2.5820621990103474 26.062196434349012
rtibia 33.07445625102792
rfoot -4.089075999244414 -5.027494069975527
rtoes -30.568714727296978
lowerback nan -1.700042605708679 -2.23206253028194
upperback -1.2171273459327463 -2.766531611287755 2.961512334771988
thorax -8.19283560381871 -0.783833039740528 4.446940430916281
lowerneck -22.237487390124 -2.3597494149013705 -2.1645577527709783
upperneck 12.112996409062886 -2.782705510720502 2.366919191838156
head 7.734087757528113 -1.0417567097491718 0.6871440804768733
lclavicle -1.503481372921655e-14 -3.99460479194436e-14
lhumerus -36.21866954569138 -25.41574763592286 98.72041565752103
lradius 107.17360403285872
lwrist 33.1847167504177
lhand -24.3233689138523 -0.40931572991806475
lfingers nan
lthumb 2.1544685227857463 29.42355656418025
rclavicle -8.999519341574577e-15 -3.555598968760165e-14
rhumerus -61.91284195534173 -4.667043614848531 -88.16465508505158
rradius 111.91975689879114
rwrist -0.5051975040366745
rhand -13.57899247883964 nan
rfingers nan
rthumb 12.581171349570242 9.208320978306006
73
root -0.02081144882945682 18.393810162335846 14.59965090718299 4.717940250846948 -3.3996329418711513 -1.9599879731747838
lfemur 13.043351210219896 -4.0357316337458915 -27.012607032503173
ltibia 49.74051248087089
lfoot 19.45901695250581 -13.747295965504968
ltoes -17.741630710673647
rfemur -40.224540572032424 -2.7655050091095603 27.139992181519137
rtibia 33.98143833907403
rfoot -4.208020537633458 -4.726976343486669
rtoes -30.27399178307659
lowerback nan -1.6532307354743492 -1.4959666495840636
upperback -1.1906142793018508 -2.5941930669751327 3.141824134045593
thorax -8.680859466466691 -0.6819205468300289 4.174365010391717
lowerneck -21.936679081706963 -2.291452128309123 -2.086776019667049
upperneck 12.025186346308773 -2.7717648665528625 2.306926405220686
head 7.6650637707213685 -1.0320703385077066 0.6618459725015727
lclavicle -5.862044253834351e-14 4.126034587090769e-14
lhumerus -37.37526112074293 -24.69501996133403 99.16190469983604
lradius 105.42813101112637
lwrist 32.90379619106902
lhand -24.82032459574771 0.0013100433388739674
lfingers nan
lthumb 1.6938585651159308 29.864640928579853
rclavicle -5.300659827660694e-14 4.547656222516969e-14
rhumerus -61.16461058719951 -4.432787778086924 -88.30635522953139
rradius 111.64907484420182
rwrist -0.9673073120347411
rhand -14.257577046168137 nan
rfingers nan
rthumb 11.927992209403278 9.293861767267664
74
root 0.01686052041261482 18.327178962368748 15.252570913805762 4.392952588058036 -3.443415994631377 -2.383997985351695
lfemur 11.448573251569716 -3.3277865805087368 -25.982744365793533
ltibia 53.27879133830833
lfoot 18.71044890121159 -13.67806088828329
ltoes -19.703201454395252
rfemur -39.22664138571557 -2.979744508788948 27.91071878600867
rtibia 35.37728206208204
rfoot -4.422196178455969 -3.0695023385789355
rtoes -17.698137682272744
lowerback nan -1.6187627677483487 -0.8890597459183511
upperback -1.0236906872377987 -2.4205432889026897 3.1543725395162134
thorax -8.638905298205453 -0.6281038976600031 3.8362572717565318
lowerneck -21.798274046359325 -2.269586278498333 -1.9868685955482948
upperneck 12.116309161579286 -2.8583475540611434 2.2569974063929754
head 7.659326205387832 -1.0564724602563098 0.6289302003391397
lclavicle -4.2822463272787804e-14 -1.3673366839906805e-14
lhumerus -38.152884602374634 -23.80417331197276 99.30274033582299
lradius 103.4172075966532
lwrist 31.47780554870375
lhand -24.715847421754095 -0.37725742465662226
lfingers nan
lthumb 1.774478743939791 29.46047126754477
rclavicle -3.74688117269819e-14 -1.0352566292344392e-14
rhumerus -60.26774536048373 -4.203123443379413 -88.56604838718043
rradius 111.30115704941426
rwrist -1.2318002787911393
rhand -14.596356094679022 nan
rfingers nan
rthumb 11.60072165581516 9.315177800220948
75
root 0.023259818733603582 18.247986266897293 15.940726419109474 4.093755630612599 -3.5716320160194046 -2.825148062505086
lfemur 9.620219463303972 -2.447603119717775 -24.703042783568655
ltibia 56.8554286385428
lfoot 19.426457852888387 -14.658198573877637
ltoes -15.388582507888685
rfemur -38.45833973321149 -3.049494316862031 28.63801949229032
rtibia 37.3115743597284
rfoot -5.650048235223209 -0.10773667872311776
rtoes -7.017984371243455
lowerback nan -1.5378807121672606 -0.5970755304344753
upperback -0.8575627901505816 -2.1962301349371067 3.2073881630099077
thorax -8.587882507099732 -0.5532605193964577 3.7196117384752583
lowerneck -21.398524810265556 -2.3056705955950534 -1.8296179346237798
upperneck 11.978867565143485 -2.9975166245472797 2.169253624322105
head 7.569320721386693 -1.1240579088704874 0.5668143685907178
lclavicle 1.553702929103981e-14 -2.58332635101169e-14
lhumerus -38.98525848200957 -22.788967687627924 99.37931782419813
lradius 101.48377700699818
lwrist 30.181161422538707
lhand -24.209216821028484 -0.8713209334101817
lfingers nan
lthumb 2.2535949266846407 28.938978802661868
rclavicle 2.1620951554995166e-14 -2.209634099748323e-14
rhumerus -59.30032278387351 -3.888640600872753 -88.90851701013274
rradius 111.02433215696408
rwrist -1.7244651261630324
rhand -14.374602233580973 nan
rfingers nan
rthumb 11.810422120127527 9.333123035390171
76
root 0.016382345498217543 18.16809152171055 16.318317040899327 3.7676171957169653 -3.525507029700357 -3.19785265470864
lfemur 7.7112068669771325 -1.5499368406983862 -23.337725822700186
ltibia 60.46355885255011
lfoot 18.948941193416854 -15.628873069321674
ltoes -16.837779097356215
rfemur -37.65831883613917 -3.0465565956960114 29.20471675040781
rtibia 39.80844001450297
rfoot -7.881047823431817 0.3183537037264941
rtoes 0.6835723005230716
lowerback nan -1.4628100455627528 -0.3346757706257153
upperback -0.9592973126358018 -2.027533559535434 3.2429076054418573
thorax -9.227032988828727 -0.45762746515709285 3.6379414186167374
lowerneck -20.80306284729944 -2.3446072038328873 -1.8804992988659714
upperneck 11.955252925593847 -3.118088694114874 2.2496477384752818
head 7.494990330821225 -1.1613529109268463 0.5919635997374393
lclavicle 3.499751193239926e-15 -1.7764395474007927e-15
lhumerus -40.06871257818743 -21.71958374904717 99.57039735823464
lradius 99.7462955471515
lwrist 29.6564416433321
lhand -24.05306855647074 -0.9288974365728524
lfingers nan
lthumb 2.407387305696314 28.880901749228183
rclavicle 9.512957158402238e-15 2.032996779561269e-15
rhumerus -58.44930194120077 -3.4818163347437014 -89.37800713493075
rradius 110.70319589280334
rwrist -1.6787790363624762
rhand -14.430991107913373 nan
rfingers nan
rthumb 11.762362780090681 9.488083380404818
77
root 0.028130712782647588 18.086350841567064 17.358458699866194 3.509580753336822 -3.2438517966953553 -3.2937027781852333
lfemur 5.66979008927661 -0.8566269485349383 -22.23636197471725
ltibia 64.1016966731355
lfoot 19.50337658416261 -14.24890890824741
ltoes -12.637422856070097
rfemur -36.74183852430072 -3.1981610431683594 29.400919032416454
rtibia 42.628632816756145
rfoot -11.02981941869685 -1.3360761208759167
rtoes 3.388380349221754
lowerback nan -1.477971464785302 -0.08053613419763872
upperback -1.091430795148513 -1.9729216672830396 3.1460125025031904
thorax -9.935326316759495 -0.403220008502464 3.4956664335111904
lowerneck -20.871747216857052 -2.367407569936555 -1.9390769864887858
upperneck 12.221344697152212 -3.221487044277106 2.375884495601966
head 7.570134732120303 -1.178561793130037 0.6326079950087369
lclavicle -1.6613334725736922e-14 -8.746441724174264e-15
lhumerus -41.3291105096789 -20.666247376917514 99.84761494904495
lradius 98.15504374713805
lwrist 29.16434127506927
lhand -24.39037029351299 -0.7075121712931967
lfingers nan
lthumb 2.090433558721334 29.108510300977922
rclavicle -9.760673147897414e-15 -4.342654451997466e-15
rhumerus -57.3843866906985 -3.056075782096613 -89.82504197926802
rradius 110.34269607487393
rwrist -2.1830083426027054
rhand -14.155276244764352 nan
rfingers nan
rthumb 12.03402211122098 9.48387532903537
78
root 0.026792363528833907 18.008371949585527 18.429365254616833 3.3499659477735495 -3.135207532011247 -3.3701599835892897
lfemur 3.371422357696467 0.06167338661273436 -21.019959223083895
ltibia 67.5878925462868
lfoot 19.358700927135597 -12.130080086729343
ltoes -7.8738552814603295
rfemur -35.96148462675351 -2.93941171870377 29.410440970626
rtibia 45.35997111488188
rfoot -14.064693075591581 -3.3091976209938907
rtoes 3.165422616080218
lowerback nan -1.4134372332825813 0.08572648364746205
upperback -1.1039767390809374 -1.8901939628947788 3.0323282302768972
thorax -10.39857815992494 -0.3016366763240961 3.395405715987253
lowerneck -21.39562490420715 -2.4036255554174097 -1.7884038034742507
upperneck 12.534269675252009 -3.357646163977341 2.36192817527416
head 7.705135695164026 -1.226410537406113 0.5912951941944251
lclavicle -3.685542019459773e-14 -6.405179593566102e-14
lhumerus -42.63922849971472 -19.60511950734401 100.105301083656
lradius 96.7301086544
lwrist 28.499426276470572
lhand -24.895593185728465 -0.7921231502141042
lfingers nan
lthumb 1.5916406483562493 29.032550647560967
rclavicle -2.989390674363399e-14 -5.910043246439203e-14
rhumerus -56.259411999218045 -2.4383646286021783 -90.42669196997169
rradius 110.24281331795517
rwrist -3.6478553793861526
rhand -14.147939157664302 nan
rfingers nan
rthumb 12.044817643050095 9.34773459171136
79
root -0.001819625996188956 17.937864439897396 18.80443318117828 3.312229430239345 -3.4712942531099635 -3.7133714365090937
lfemur 0.9678777941178041 1.3856491331013263 -19.43288823245826
ltibia 70.85076259069594
lfoot 17.622064771771342 -10.580158050510953
ltoes -7.542032478414805
rfemur -35.308555264920635 -2.193036231816164 29.689080223303172
rtibia 47.82813399319051
rfoot -16.8264260139167 -5.415532759993971
rtoes 1.4169698239035418
lowerback nan -1.1835411352617857 0.3389898601343029
upperback -0.9119708619231119 -1.597388213688746 2.922418318604905
thorax -10.236635185537116 -0.11088324348164735 3.1140198523828175
lowerneck -22.16741038832737 -2.428408114660258 -1.4261356607688673
upperneck 13.033349450919005 -3.4754278951856676 2.277467139928695
head 7.915194234319972 -1.265562618877538 0.5053849940990932
lclavicle -1.157611899916116e-14 -3.4624437775083744e-14
lhumerus -43.61794646048827 -18.605322190321083 100.07251983020859
lradius 95.36699959417345
lwrist 28.30831873108561
lhand -25.025214219514083 -0.8205840182487483
lfingers nan
lthumb 1.4823643598453526 29.001553069373557
rclavicle -4.535594216965777e-15 -3.0131274449931144e-14
rhumerus -54.70992346083565 -1.7424451810201234 -91.205452323691
rradius 109.97948681055539
rwrist -5.914985052504002
rhand -14.494198291584372 nan
rfingers nan
rthumb 11.716029394342725 9.522738489957282
